<svg xmlns="http://www.w3.org/2000/svg" version="1.1" xmlns:xlink="http://www.w3.org/1999/xlink" width="500" height="500"><svg xmlns="http://www.w3.org/2000/svg" xmlns:xlink="http://www.w3.org/1999/xlink" width="500" zoomAndPan="magnify" viewBox="0 0 375 374.999991" height="500" preserveAspectRatio="xMidYMid meet" version="1.0"><defs><g></g><clipPath id="SvgjsClipPath1009"><path d="M 0 0 L 374.996094 0 L 374.996094 374.996094 L 0 374.996094 Z M 0 0 " clip-rule="nonzero"></path></clipPath><clipPath id="SvgjsClipPath1008"><path d="M 374.996094 18.75 L 374.996094 356.246094 C 374.996094 361.21875 373.023438 365.988281 369.503906 369.503906 C 365.988281 373.023438 361.21875 374.996094 356.246094 374.996094 L 18.75 374.996094 C 8.394531 374.996094 0 366.601562 0 356.246094 L 0 18.75 C 0 8.394531 8.394531 0 18.75 0 L 356.246094 0 C 361.21875 0 365.988281 1.976562 369.503906 5.492188 C 373.023438 9.007812 374.996094 13.777344 374.996094 18.75 Z M 374.996094 18.75 " clip-rule="nonzero"></path></clipPath><clipPath id="SvgjsClipPath1007"><path d="M 0 0 L 374.996094 0 L 374.996094 374.996094 L 0 374.996094 Z M 0 0 " clip-rule="nonzero"></path></clipPath><clipPath id="SvgjsClipPath1006"><path d="M 374.996094 18.75 L 374.996094 356.246094 C 374.996094 361.21875 373.023438 365.988281 369.503906 369.503906 C 365.988281 373.023438 361.21875 374.996094 356.246094 374.996094 L 18.75 374.996094 C 8.394531 374.996094 0 366.601562 0 356.246094 L 0 18.75 C 0 8.394531 8.394531 0 18.75 0 L 356.246094 0 C 361.21875 0 365.988281 1.976562 369.503906 5.492188 C 373.023438 9.007812 374.996094 13.777344 374.996094 18.75 Z M 374.996094 18.75 " clip-rule="nonzero"></path></clipPath><clipPath id="SvgjsClipPath1005"><rect x="0" width="375" y="0" height="375"></rect></clipPath></defs><rect x="-37.5" width="450" fill="#ffffff" y="-37.499999" height="449.999989" fill-opacity="1"></rect><rect x="-37.5" width="450" fill="#ffffff" y="-37.499999" height="449.999989" fill-opacity="1"></rect><g clip-path="url(#57c2828e6f)"><g clip-path="url(#688b147151)"><g transform="matrix(1, 0, 0, 1, 0, 0)"><g clip-path="url(#2c917d6ca8)"><g clip-path="url(#75f444fe41)"><g clip-path="url(#547865d513)"><path fill="#202020" d="M 0 0 L 374.996094 0 L 374.996094 374.996094 L 0 374.996094 Z M 0 0 " fill-opacity="1" fill-rule="nonzero"></path></g></g></g></g></g></g><g fill="#ff802b" fill-opacity="1"><g transform="translate(-26.008215, 268.498752)"><g><path d="M 50.4375 -161.140625 C 50.4375 -167.554688 52.46875 -172.789062 56.53125 -176.84375 C 60.59375 -180.90625 65.828125 -182.9375 72.234375 -182.9375 L 100.453125 -182.9375 L 100.453125 -157.296875 L 83.140625 -157.296875 C 79.285156 -157.296875 77.359375 -155.160156 77.359375 -150.890625 L 77.359375 1.28125 C 77.359375 5.550781 79.285156 7.6875 83.140625 7.6875 L 100.453125 7.6875 L 100.453125 33.34375 L 72.234375 33.34375 C 65.828125 33.34375 60.59375 31.3125 56.53125 27.25 C 52.46875 23.1875 50.4375 17.953125 50.4375 11.546875 Z M 50.4375 -161.140625 "></path></g></g></g><g fill="#fcfcfc" fill-opacity="1"><g transform="translate(72.733966, 268.498752)"><g><path d="M 65.828125 -22.65625 C 71.242188 -22.65625 75.695312 -23.472656 79.1875 -25.109375 C 82.675781 -26.742188 85.378906 -28.953125 87.296875 -31.734375 C 89.222656 -34.515625 90.539062 -37.71875 91.25 -41.34375 C 91.96875 -44.976562 92.328125 -48.722656 92.328125 -52.578125 L 92.328125 -56.421875 L 120.53125 -56.421875 L 120.53125 -52.578125 C 120.53125 -34.765625 115.863281 -21.050781 106.53125 -11.4375 C 97.207031 -1.820312 83.640625 2.984375 65.828125 2.984375 C 48.722656 2.984375 35.1875 -2.210938 25.21875 -12.609375 C 15.25 -23.003906 10.265625 -38.175781 10.265625 -58.125 L 10.265625 -91.46875 C 10.265625 -101.019531 11.546875 -109.601562 14.109375 -117.21875 C 16.671875 -124.84375 20.375 -131.253906 25.21875 -136.453125 C 30.0625 -141.660156 35.898438 -145.648438 42.734375 -148.421875 C 49.578125 -151.203125 57.273438 -152.59375 65.828125 -152.59375 C 74.660156 -152.59375 82.492188 -151.3125 89.328125 -148.75 C 96.171875 -146.1875 101.90625 -142.484375 106.53125 -137.640625 C 111.164062 -132.796875 114.65625 -126.953125 117 -120.109375 C 119.351562 -113.265625 120.53125 -105.570312 120.53125 -97.03125 L 120.53125 -93.1875 L 92.328125 -93.1875 L 92.328125 -97.03125 C 92.328125 -100.59375 91.898438 -104.15625 91.046875 -107.71875 C 90.191406 -111.28125 88.765625 -114.484375 86.765625 -117.328125 C 84.773438 -120.179688 82.066406 -122.5 78.640625 -124.28125 C 75.222656 -126.0625 70.953125 -126.953125 65.828125 -126.953125 C 61.117188 -126.953125 57.054688 -126.0625 53.640625 -124.28125 C 50.222656 -122.5 47.375 -120.078125 45.09375 -117.015625 C 42.8125 -113.953125 41.132812 -110.390625 40.0625 -106.328125 C 39 -102.265625 38.46875 -98.023438 38.46875 -93.609375 L 38.46875 -56 C 38.46875 -51.15625 38.96875 -46.703125 39.96875 -42.640625 C 40.96875 -38.578125 42.535156 -35.046875 44.671875 -32.046875 C 46.804688 -29.054688 49.617188 -26.742188 53.109375 -25.109375 C 56.597656 -23.472656 60.835938 -22.65625 65.828125 -22.65625 Z M 65.828125 -22.65625 "></path></g></g></g><g fill="#fcfcfc" fill-opacity="1"><g transform="translate(171.468376, 268.498752)"><g><path d="M 65.390625 2.984375 C 56.984375 2.984375 49.429688 1.953125 42.734375 -0.109375 C 36.046875 -2.171875 30.347656 -5.050781 25.640625 -8.75 C 20.941406 -12.457031 17.3125 -16.84375 14.75 -21.90625 C 12.1875 -26.96875 10.90625 -32.628906 10.90625 -38.890625 L 10.90625 -40.171875 C 10.90625 -45.453125 11.648438 -50.085938 13.140625 -54.078125 C 14.640625 -58.066406 16.632812 -61.484375 19.125 -64.328125 C 21.625 -67.179688 24.4375 -69.53125 27.5625 -71.375 C 30.695312 -73.226562 33.976562 -74.65625 37.40625 -75.65625 L 37.40625 -79.5 C 34.40625 -80.644531 31.515625 -82.140625 28.734375 -83.984375 C 25.960938 -85.835938 23.539062 -88.082031 21.46875 -90.71875 C 19.40625 -93.351562 17.769531 -96.488281 16.5625 -100.125 C 15.351562 -103.757812 14.75 -107.859375 14.75 -112.421875 L 14.75 -113.703125 C 14.75 -119.828125 16.171875 -125.3125 19.015625 -130.15625 C 21.867188 -135 25.644531 -139.09375 30.34375 -142.4375 C 35.050781 -145.789062 40.429688 -148.320312 46.484375 -150.03125 C 52.535156 -151.738281 58.835938 -152.59375 65.390625 -152.59375 C 71.953125 -152.59375 78.257812 -151.738281 84.3125 -150.03125 C 90.363281 -148.320312 95.738281 -145.789062 100.4375 -142.4375 C 105.144531 -139.09375 108.921875 -135 111.765625 -130.15625 C 114.617188 -125.3125 116.046875 -119.828125 116.046875 -113.703125 L 116.046875 -112.421875 C 116.046875 -107.859375 115.441406 -103.757812 114.234375 -100.125 C 113.023438 -96.488281 111.382812 -93.351562 109.3125 -90.71875 C 107.25 -88.082031 104.828125 -85.835938 102.046875 -83.984375 C 99.273438 -82.140625 96.390625 -80.644531 93.390625 -79.5 L 93.390625 -75.65625 C 96.816406 -74.65625 100.09375 -73.226562 103.21875 -71.375 C 106.351562 -69.53125 109.164062 -67.179688 111.65625 -64.328125 C 114.15625 -61.484375 116.148438 -58.066406 117.640625 -54.078125 C 119.140625 -50.085938 119.890625 -45.453125 119.890625 -40.171875 L 119.890625 -38.890625 C 119.890625 -32.628906 118.609375 -26.929688 116.046875 -21.796875 C 113.484375 -16.671875 109.847656 -12.289062 105.140625 -8.65625 C 100.441406 -5.019531 94.707031 -2.171875 87.9375 -0.109375 C 81.175781 1.953125 73.660156 2.984375 65.390625 2.984375 Z M 65.390625 -23.9375 C 73.796875 -23.9375 80.28125 -25.820312 84.84375 -29.59375 C 89.40625 -33.375 91.6875 -38.1875 91.6875 -44.03125 C 91.6875 -49.863281 89.40625 -54.664062 84.84375 -58.4375 C 80.28125 -62.21875 73.796875 -64.109375 65.390625 -64.109375 C 56.984375 -64.109375 50.5 -62.21875 45.9375 -58.4375 C 41.382812 -54.664062 39.109375 -49.863281 39.109375 -44.03125 C 39.109375 -38.1875 41.382812 -33.375 45.9375 -29.59375 C 50.5 -25.820312 56.984375 -23.9375 65.390625 -23.9375 Z M 65.390625 -125.671875 C 58.984375 -125.671875 53.640625 -124.03125 49.359375 -120.75 C 45.085938 -117.46875 42.953125 -113.335938 42.953125 -108.359375 C 42.953125 -103.367188 45.085938 -99.234375 49.359375 -95.953125 C 53.640625 -92.679688 58.984375 -91.046875 65.390625 -91.046875 C 71.804688 -91.046875 77.148438 -92.679688 81.421875 -95.953125 C 85.703125 -99.234375 87.84375 -103.367188 87.84375 -108.359375 C 87.84375 -113.335938 85.703125 -117.46875 81.421875 -120.75 C 77.148438 -124.03125 71.804688 -125.671875 65.390625 -125.671875 Z M 65.390625 -125.671875 "></path></g></g></g><g fill="#ff802b" fill-opacity="1"><g transform="translate(270.206613, 268.498752)"><g><path d="M 80.359375 11.546875 C 80.359375 17.953125 78.328125 23.1875 74.265625 27.25 C 70.203125 31.3125 64.96875 33.34375 58.5625 33.34375 L 30.34375 33.34375 L 30.34375 7.6875 L 47.65625 7.6875 C 51.5 7.6875 53.421875 5.550781 53.421875 1.28125 L 53.421875 -150.890625 C 53.421875 -155.160156 51.5 -157.296875 47.65625 -157.296875 L 30.34375 -157.296875 L 30.34375 -182.9375 L 58.5625 -182.9375 C 64.96875 -182.9375 70.203125 -180.90625 74.265625 -176.84375 C 78.328125 -172.789062 80.359375 -167.554688 80.359375 -161.140625 Z M 80.359375 11.546875 "></path></g></g></g></svg><style>@media (prefers-color-scheme: light) { :root { filter: none; } }
@media (prefers-color-scheme: dark) { :root { filter: none; } }
</style></svg>