<?xml version="1.0" encoding="utf-8" ?><svg xmlns="http://www.w3.org/2000/svg" xmlns:xlink="http://www.w3.org/1999/xlink" width="1500" height="1503" viewBox="0 0 1500 1503"><path transform="scale(0.626043 0.62625)" d="M1325.26 252.488C1334.9 252.09 1344.56 252.213 1354.19 252.854C1443.22 258.291 1526.51 298.679 1586 365.253C1636.75 422.643 1666.31 495.732 1669.75 572.32C1670.7 593.479 1668.95 614.079 1667.59 635.176C1677.98 634.131 1688.39 633.379 1698.82 632.919C1888.1 626.329 2048.61 771.535 2053.98 962.108C2055.84 1029.17 2037.55 1095.24 2001.5 1151.77C1975.93 1191.75 1947.92 1215.83 1915.41 1248.76L1799.41 1365.15L1441.79 1722.42L1328.8 1835.51C1307.77 1856.46 1286.51 1877.87 1265.42 1898.72C1236.74 1927.07 1263.78 1939.87 1284.59 1961.44C1313.29 1991.1 1342.44 2020.32 1372.03 2049.09C1383.01 2059.8 1403.38 2078.32 1410.98 2090.5C1416.94 2100.06 1420.2 2111.05 1420.42 2122.32C1421.46 2159.45 1391.87 2191.7 1354.2 2192.11C1327.36 2192.39 1312.56 2178.78 1294.69 2161.14L1214.5 2080.67C1164.44 2030.42 1120.65 1998.61 1120.04 1921.51C1119.43 1843.32 1165.3 1809.83 1215.3 1759.78L1345.76 1629.52L1848.44 1126.76C1894.44 1080.42 1921.25 1037.2 1920.83 969.578C1920.13 857.66 1823.95 764.921 1713.35 766.019C1694.9 766.276 1676.57 768.936 1658.81 773.932C1604.62 788.954 1581.72 815.918 1543.06 853.869C1517.56 878.886 1492.34 904.18 1467.4 929.747L1154.75 1242.04L1049.16 1347.64C1031.05 1365.72 1012.28 1385.04 993.52 1402.35C985.008 1410.21 971.934 1416.04 960.428 1417.41C942.048 1419.66 923.528 1414.49 908.959 1403.04C881.592 1381.15 875.818 1339.83 897.649 1311.97C911.433 1294.38 928.371 1278.74 944.222 1262.95L1023.62 1183.64L1348.01 859.128L1439.7 767.467C1457.22 749.963 1480.61 728.18 1495.44 709.342C1527.56 667.981 1541.91 615.504 1535.32 563.519C1528.71 510.036 1501.09 461.399 1458.57 428.374C1395.66 379.475 1309.79 373.496 1239.91 409.439C1207.54 426.086 1167.18 470.569 1140.48 497.298L1053.32 584.477L627.157 1010.68L500.011 1137.82C476.516 1161.45 452.372 1186.76 427.669 1209.07C418.042 1217.46 407.16 1221.75 394.728 1223.34C330.667 1231.52 293.073 1155.54 339.099 1109.58C359.746 1088.97 380.76 1067.46 401.324 1046.93L519.713 928.937L842.055 606.696L1025.54 423.272C1122.08 326.55 1176.92 259.986 1325.26 252.488Z"/><path transform="scale(0.626043 0.62625)" d="M1327.32 521.74C1385.58 514.04 1425.96 583.588 1386.73 629.578C1369.15 650.19 1348.15 669.454 1328.99 688.736L1208.42 809.645L948.844 1068.93C907.767 1110.02 866.405 1150.94 825.359 1192.09C784.055 1233.5 760.829 1281.08 761.623 1340.63C762.041 1394.96 784.267 1446.83 823.294 1484.56C884.098 1542.24 973.869 1556.95 1049.86 1521.69C1065.34 1514.31 1079.79 1504.93 1092.85 1493.8C1115.39 1474.54 1141.58 1446.27 1163.19 1424.51L1268.08 1319.66L1560.99 1026.69L1628.48 959.343C1641.28 946.434 1663.07 922.755 1677.21 913.01C1688.56 905.181 1701.98 900.923 1715.75 900.781C1759.11 900.469 1791.63 944.012 1779.38 985.509C1773.18 1006.52 1749.6 1026.39 1734.19 1041.76L1352.09 1423.98L1246.07 1529.88C1219.11 1556.95 1188.76 1589.92 1158.45 1611.82C1118.51 1640.63 1072.62 1660.1 1024.17 1668.81C935.401 1685.06 843.825 1665.08 769.843 1613.32C698.534 1563.07 649.732 1486.82 633.909 1400.94C617.801 1309.37 636.133 1221.03 689.849 1144.78C707.426 1119.84 723.846 1104.49 745.106 1083.05L811.849 1016.49L1033.61 795.202L1207.6 620.969L1258.32 569.933C1281.25 546.644 1293.51 527.659 1327.32 521.74Z"/></svg>